<svg width="424" height="33" viewBox="0 0 424 33" fill="none" xmlns="http://www.w3.org/2000/svg">
<path d="M13.5035 1.58209V8.28825H4.38167L8.56401 4.10591V30.2816L4.38167 26.0992H13.5035V32.8054H0.0551147V1.58209H13.5035Z" fill="white"/>
<path d="M45.1631 15.4992L45.8842 13.8407C47.9273 13.9128 49.6339 14.2373 51.004 14.8141C52.3741 15.391 53.3956 16.1962 54.0686 17.2298C54.7657 18.2393 55.1142 19.4532 55.1142 20.8713C55.1142 22.3375 54.7777 23.6595 54.1047 24.8373C53.4557 26.0151 52.4582 26.9405 51.1122 27.6135C49.7661 28.2866 48.0836 28.6231 46.0645 28.6231H24.8283L26.8834 14.742L24.8283 1.58209H45.3074C47.8071 1.58209 49.7661 2.17098 51.1843 3.34877C52.6024 4.50251 53.3115 6.11295 53.3115 8.18009C53.3115 9.35787 53.0471 10.4635 52.5183 11.4971C51.9895 12.5307 51.1242 13.408 49.9223 14.1291C48.7446 14.8262 47.1582 15.2829 45.1631 15.4992ZM33.9141 26.604L30.3807 22.4577H43.108C43.9012 22.4577 44.5262 22.2534 44.9829 21.8448C45.4396 21.4121 45.6679 20.8353 45.6679 20.1142C45.6679 19.4652 45.4396 18.9124 44.9829 18.4557C44.5502 17.999 43.9012 17.7706 43.0359 17.7706H32.3637V11.7134H41.6658C42.2908 11.7134 42.8076 11.5212 43.2162 11.1366C43.6488 10.752 43.8652 10.2592 43.8652 9.65833C43.8652 9.10549 43.6729 8.6488 43.2883 8.28825C42.9037 7.9277 42.3629 7.74743 41.6658 7.74743H30.4168L33.9141 3.60115L35.7529 14.742L33.9141 26.604Z" fill="white"/>
<path d="M58.2591 1.58209H67.5612V28.6231H58.2591V1.58209Z" fill="white"/>
<path d="M80.2139 5.58415H89.516V28.6231H80.2139V5.58415ZM70.4791 1.58209H99.2507V9.87466H70.4791V1.58209Z" fill="white"/>
<path d="M132.329 16.9053C132.041 19.3811 131.187 21.5443 129.769 23.3951C128.375 25.246 126.524 26.6881 124.217 27.7217C121.909 28.7553 119.265 29.2721 116.285 29.2721C113.064 29.2721 110.252 28.6832 107.848 27.5054C105.444 26.3276 103.57 24.6811 102.224 22.5659C100.902 20.4266 100.241 17.9389 100.241 15.1026C100.241 12.2663 100.902 9.79053 102.224 7.67532C103.57 5.53608 105.444 3.87757 107.848 2.69978C110.252 1.522 113.064 0.933105 116.285 0.933105C119.265 0.933105 121.909 1.44989 124.217 2.48345C126.524 3.51702 128.375 4.95921 129.769 6.81001C131.187 8.66082 132.041 10.8241 132.329 13.2998H122.991C122.775 12.3624 122.378 11.5692 121.801 10.9202C121.224 10.2472 120.467 9.74245 119.53 9.40594C118.616 9.0454 117.535 8.86513 116.285 8.86513C114.891 8.86513 113.689 9.11751 112.679 9.62227C111.694 10.103 110.937 10.8121 110.408 11.7495C109.879 12.6869 109.615 13.8046 109.615 15.1026C109.615 16.4005 109.879 17.5182 110.408 18.4557C110.937 19.369 111.694 20.0781 112.679 20.5829C113.689 21.0877 114.891 21.34 116.285 21.34C117.535 21.34 118.616 21.1838 119.53 20.8713C120.467 20.5348 121.224 20.0421 121.801 19.3931C122.378 18.7201 122.775 17.8908 122.991 16.9053H132.329Z" fill="white"/>
<path d="M150.905 29.2721C147.612 29.2721 144.728 28.6832 142.252 27.5054C139.8 26.3276 137.889 24.6811 136.519 22.5659C135.149 20.4266 134.464 17.9389 134.464 15.1026C134.464 12.2663 135.149 9.79053 136.519 7.67532C137.889 5.53608 139.8 3.87757 142.252 2.69978C144.728 1.522 147.612 0.933105 150.905 0.933105C154.198 0.933105 157.071 1.522 159.522 2.69978C161.998 3.87757 163.921 5.53608 165.291 7.67532C166.661 9.79053 167.346 12.2663 167.346 15.1026C167.346 17.9389 166.661 20.4266 165.291 22.5659C163.921 24.6811 161.998 26.3276 159.522 27.5054C157.071 28.6832 154.198 29.2721 150.905 29.2721ZM150.905 20.9795C152.371 20.9795 153.633 20.7511 154.691 20.2944C155.749 19.8137 156.554 19.1407 157.107 18.2754C157.683 17.386 157.972 16.3284 157.972 15.1026C157.972 13.8767 157.683 12.8311 157.107 11.9658C156.554 11.0765 155.749 10.4035 154.691 9.94677C153.633 9.46604 152.371 9.22567 150.905 9.22567C149.439 9.22567 148.177 9.46604 147.119 9.94677C146.062 10.4035 145.245 11.0765 144.668 11.9658C144.115 12.8311 143.838 13.8767 143.838 15.1026C143.838 16.3284 144.115 17.386 144.668 18.2754C145.245 19.1407 146.062 19.8137 147.119 20.2944C148.177 20.7511 149.439 20.9795 150.905 20.9795Z" fill="white"/>
<path d="M170.648 1.58209H179.95V28.6231H170.648V1.58209Z" fill="white"/>
<path d="M209.332 21.8448L206.808 22.4577V1.58209H215.822V28.6231H204.176L190.764 7.78349L193.288 7.17056V28.6231H184.274V1.58209H196.281L209.332 21.8448Z" fill="white"/>
<path d="M220.153 1.58209H229.455V28.6231H220.153V1.58209Z" fill="white"/>
<path d="M232.878 19.7176H242.324C242.42 20.2464 242.697 20.7031 243.153 21.0877C243.61 21.4482 244.235 21.7366 245.028 21.953C245.821 22.1453 246.771 22.2414 247.876 22.2414C249.319 22.2414 250.436 22.0972 251.229 21.8087C252.047 21.5203 252.455 21.0516 252.455 20.4026C252.455 19.97 252.227 19.6094 251.77 19.321C251.314 19.0085 250.376 18.8042 248.958 18.708L244.487 18.4196C240.425 18.1552 237.493 17.2899 235.69 15.8237C233.887 14.3575 232.986 12.4225 232.986 10.0189C232.986 7.99981 233.563 6.31726 234.716 4.97122C235.87 3.62519 237.481 2.61566 239.548 1.94264C241.639 1.26962 244.079 0.933105 246.867 0.933105C249.583 0.933105 251.987 1.31769 254.078 2.08685C256.193 2.83198 257.864 3.88959 259.089 5.25966C260.339 6.62974 261.024 8.22816 261.145 10.0549H251.698C251.626 9.62227 251.386 9.24971 250.977 8.93724C250.593 8.62476 250.04 8.3844 249.319 8.21614C248.598 8.04789 247.72 7.96376 246.687 7.96376C245.365 7.96376 244.319 8.09596 243.55 8.36036C242.805 8.62476 242.432 9.05742 242.432 9.65833C242.432 10.0669 242.648 10.4155 243.081 10.7039C243.538 10.9924 244.403 11.1846 245.677 11.2808L250.725 11.6053C253.369 11.7735 255.508 12.1701 257.142 12.7951C258.777 13.396 259.967 14.2373 260.712 15.3189C261.481 16.4005 261.866 17.7346 261.866 19.321C261.866 21.316 261.277 23.0586 260.099 24.5489C258.921 26.0392 257.263 27.2049 255.123 28.0462C253.008 28.8634 250.532 29.2721 247.696 29.2721C244.764 29.2721 242.192 28.8755 239.98 28.0823C237.769 27.289 236.038 26.1714 234.789 24.7292C233.563 23.287 232.926 21.6165 232.878 19.7176Z" fill="white"/>
<path d="M272.599 5.58415H281.901V28.6231H272.599V5.58415ZM262.864 1.58209H291.636V9.87466H262.864V1.58209Z" fill="white"/>
<path d="M293.723 29.0557C292.81 29.0557 291.969 28.8394 291.199 28.4067C290.454 27.9741 289.865 27.3852 289.433 26.6401C289 25.8709 288.784 25.0296 288.784 24.1162C288.784 23.1788 289 22.3375 289.433 21.5924C289.865 20.8473 290.454 20.2584 291.199 19.8257C291.969 19.3931 292.81 19.1768 293.723 19.1768C294.661 19.1768 295.502 19.3931 296.247 19.8257C296.992 20.2584 297.581 20.8473 298.014 21.5924C298.446 22.3375 298.663 23.1788 298.663 24.1162C298.663 25.0296 298.446 25.8709 298.014 26.6401C297.581 27.3852 296.992 27.9741 296.247 28.4067C295.502 28.8394 294.661 29.0557 293.723 29.0557Z" fill="white"/>
<path d="M316.531 29.2721C313.238 29.2721 310.354 28.6832 307.878 27.5054C305.426 26.3276 303.516 24.6811 302.145 22.5659C300.775 20.4266 300.09 17.9389 300.09 15.1026C300.09 12.2663 300.775 9.79053 302.145 7.67532C303.516 5.53608 305.426 3.87757 307.878 2.69978C310.354 1.522 313.238 0.933105 316.531 0.933105C319.824 0.933105 322.697 1.522 325.148 2.69978C327.624 3.87757 329.547 5.53608 330.917 7.67532C332.287 9.79053 332.972 12.2663 332.972 15.1026C332.972 17.9389 332.287 20.4266 330.917 22.5659C329.547 24.6811 327.624 26.3276 325.148 27.5054C322.697 28.6832 319.824 29.2721 316.531 29.2721ZM316.531 20.9795C317.997 20.9795 319.259 20.7511 320.317 20.2944C321.375 19.8137 322.18 19.1407 322.733 18.2754C323.309 17.386 323.598 16.3284 323.598 15.1026C323.598 13.8767 323.309 12.8311 322.733 11.9658C322.18 11.0765 321.375 10.4035 320.317 9.94677C319.259 9.46604 317.997 9.22567 316.531 9.22567C315.065 9.22567 313.803 9.46604 312.745 9.94677C311.688 10.4035 310.871 11.0765 310.294 11.9658C309.741 12.8311 309.465 13.8767 309.465 15.1026C309.465 16.3284 309.741 17.386 310.294 18.2754C310.871 19.1407 311.688 19.8137 312.745 20.2944C313.803 20.7511 315.065 20.9795 316.531 20.9795Z" fill="white"/>
<path d="M342.692 13.1556H351.778C352.691 13.1556 353.4 12.9393 353.905 12.5066C354.41 12.074 354.662 11.449 354.662 10.6318C354.662 9.81456 354.41 9.18962 353.905 8.75696C353.4 8.32431 352.691 8.10798 351.778 8.10798H341.394L345.576 3.92564V28.6231H336.274V1.58209H353.22C355.383 1.58209 357.27 1.96667 358.88 2.73584C360.515 3.48097 361.777 4.52655 362.666 5.87259C363.58 7.21863 364.036 8.80503 364.036 10.6318C364.036 12.4105 363.58 13.9849 362.666 15.355C361.777 16.701 360.515 17.7466 358.88 18.4917C357.27 19.2368 355.383 19.6094 353.22 19.6094H342.692V13.1556ZM345.865 15.9679H356.14L365.118 28.6231H354.482L345.865 15.9679Z" fill="white"/>
<path d="M395.663 16.9414C395.567 18.5278 395.23 20.0661 394.653 21.5564C394.101 23.0226 393.271 24.3446 392.166 25.5224C391.084 26.6761 389.702 27.5895 388.019 28.2625C386.337 28.9355 384.342 29.2721 382.034 29.2721C379.943 29.2721 377.96 28.9716 376.085 28.3707C374.234 27.7698 372.588 26.8804 371.146 25.7026C369.728 24.5008 368.61 23.0226 367.793 21.2679C366.975 19.4892 366.567 17.4341 366.567 15.1026C366.567 12.771 366.975 10.7279 367.793 8.97329C368.61 7.19459 369.752 5.71635 371.218 4.53857C372.684 3.33675 374.379 2.43538 376.302 1.83447C378.225 1.23356 380.304 0.933105 382.539 0.933105C385.664 0.933105 388.332 1.40182 390.543 2.33924C392.779 3.25262 394.569 4.51453 395.915 6.12497C397.285 7.73541 398.187 9.59824 398.619 11.7134H389.281C389.065 11.0404 388.632 10.4756 387.983 10.0189C387.358 9.53815 386.589 9.1776 385.676 8.93724C384.762 8.67283 383.741 8.54063 382.611 8.54063C381.217 8.54063 380.015 8.781 379.006 9.26173C377.996 9.71842 377.215 10.4275 376.662 11.389C376.133 12.3504 375.869 13.5883 375.869 15.1026C375.869 16.6409 376.169 17.9148 376.77 18.9244C377.395 19.9339 378.273 20.679 379.402 21.1598C380.556 21.6405 381.914 21.8809 383.477 21.8809C384.991 21.8809 386.337 21.7126 387.515 21.3761C388.692 21.0155 389.642 20.4747 390.363 19.7536C391.108 19.0085 391.565 18.0711 391.733 16.9414H395.663ZM384.053 19.4291V14.1652H398.836V28.6231H392.382L391.012 18.2754L392.634 19.4291H384.053Z" fill="white"/>
<path d="M410.442 1.58209H423.891V32.8054H410.442V26.0992H419.564L415.382 30.2816V4.10591L419.564 8.28825H410.442V1.58209Z" fill="white"/>
</svg>
